PathFileType	4	(X/Y/Z)	SUBJ36_3_walk_RCNL2025.trc
DataRate	CameraRate	NumFrames	NumMarkers	Units	OrigDataRate	OrigDataStartFrame	OrigNumFrames
100	100	6	25	mm	100	87	344
Frame#	Time	R_Shoulder			L_Shoulder			C7			J_Notch			R_Elbow			L_Elbow			R_Wrist			L_Wrist			R_Asis			L_Asis			Sacral			Thoracic			Sternum			R_Thigh_Lateral			R_Knee_Lateral			R_Shank_Lateral			R_Ankle_Lateral			R_Heel			R_Toe			L_Thigh_Lateral			L_Knee_Lateral			L_Shank_Lateral			L_Ankle_Lateral			L_Heel			L_Toe		
		X1	Y1	Z1	X2	Y2	Z2	X3	Y3	Z3	X4	Y4	Z4	X5	Y5	Z5	X6	Y6	Z6	X7	Y7	Z7	X8	Y8	Z8	X9	Y9	Z9	X10	Y10	Z10	X11	Y11	Z11	X12	Y12	Z12	X13	Y13	Z13	X14	Y14	Z14	X15	Y15	Z15	X16	Y16	Z16	X17	Y17	Z17	X18	Y18	Z18	X19	Y19	Z19	X20	Y20	Z20	X21	Y21	Z21	X22	Y22	Z22	X23	Y23	Z23	X24	Y24	Z24	X25	Y25	Z25
87	0.86000000	-1499.631348	1326.270630	236.242325	-1499.114746	1285.951904	-112.018806	-1566.016357	1381.655518	65.378693	-1433.537476	1269.522705	72.704933	-1603.208130	1022.116699	314.350769	-1521.860107	968.343140	-149.877167	-1563.656494	787.460999	354.752747	-1392.358032	775.247253	-118.465061	-1454.004883	888.507996	199.998550	-1452.188843	887.902344	-33.042812	-1671.594849	876.598450	93.894142	-1652.563843	1129.572754	79.957199	-1405.281860	1089.392822	91.672958	-1410.896484	487.175507	246.371078	-1374.883789	439.846863	201.918823	-1316.855347	239.104156	243.511719	-1253.572754	77.571098	173.698151	-1290.277710	37.125904	128.692139	-1133.329712	91.444809	145.701324	-1656.934326	527.267334	-100.124779	-1674.887451	454.092499	-25.309929	-1774.235596	261.297821	-48.416458	-1816.743042	97.896942	28.504107	-1852.922607	78.412361	87.372025	-1694.613281	41.185623	39.488949
88	0.87000000	-1488.311157	1325.276733	237.283905	-1488.350342	1285.116089	-111.033928	-1554.907715	1380.505127	66.667908	-1422.181641	1268.700806	73.643867	-1590.681030	1020.426819	315.172272	-1510.579102	967.411682	-148.757202	-1550.275635	785.753021	354.774170	-1381.130737	774.238678	-117.497055	-1441.182983	887.254578	200.686661	-1439.631226	886.678406	-32.326008	-1658.850708	875.573608	95.022430	-1640.679932	1128.140747	81.315353	-1393.390869	1088.636353	92.244141	-1397.537720	486.234619	246.035233	-1361.852905	438.825043	201.246841	-1303.618408	238.041122	242.078552	-1240.849976	76.638435	171.824493	-1277.900757	36.589165	126.880119	-1120.624268	89.955498	143.296417	-1646.928711	527.474365	-100.236839	-1665.408691	454.223877	-25.611742	-1768.407104	263.501678	-49.311134	-1814.726685	100.841957	27.164663	-1851.416870	82.252045	85.915443	-1693.854248	41.176807	39.049232
89	0.88000000	-1476.835327	1324.414429	238.390808	-1477.396606	1284.394653	-109.967888	-1543.636719	1379.460205	68.033966	-1410.618408	1268.043701	74.652496	-1577.958008	1018.825256	316.054932	-1499.396851	966.620911	-147.637314	-1536.605530	784.146942	354.836304	-1370.172180	773.235077	-116.616142	-1428.130493	886.121216	201.418625	-1426.883301	885.491760	-31.531538	-1645.907715	874.709656	96.236946	-1628.588379	1126.805542	82.707542	-1381.267212	1088.011719	92.902290	-1383.373779	485.751709	245.848969	-1348.587158	437.858643	200.660126	-1292.050781	236.643051	240.426315	-1230.387695	75.213493	169.853226	-1268.003052	35.972477	124.851860	-1110.124390	87.140282	141.023010	-1636.703003	527.777527	-100.210518	-1655.494751	454.334717	-25.878075	-1762.337280	265.893494	-50.179546	-1812.457764	104.040062	25.760750	-1849.613770	86.396652	84.375725	-1693.013306	41.110050	38.467903
90	0.89000000	-1465.189941	1323.675903	239.571732	-1466.230591	1283.786133	-108.813820	-1532.193237	1378.544556	69.471329	-1398.823486	1267.584473	75.728363	-1565.039307	1017.324036	316.995483	-1488.323608	965.976746	-146.524048	-1522.655762	782.654663	354.938782	-1359.477966	772.237091	-115.826366	-1414.860352	885.139771	202.190445	-1413.966919	884.343567	-30.656479	-1632.784546	874.015442	97.521545	-1616.296021	1125.598999	84.124619	-1368.911377	1087.531982	93.656883	-1368.588989	485.655426	245.774292	-1335.155396	436.981049	200.147812	-1281.965454	235.036926	238.607086	-1221.913696	73.474579	167.917938	-1260.347412	35.413078	122.782166	-1101.595337	83.134369	138.930222	-1626.214233	528.157104	-100.043159	-1645.086670	454.402252	-26.108244	-1755.966431	268.474243	-51.019348	-1809.877075	107.503448	24.295849	-1847.442871	90.864754	82.759499	-1692.076416	40.988029	37.802200
91	0.90000000	-1453.365601	1323.063232	240.829636	-1454.837769	1283.296875	-107.568474	-1520.566284	1377.792603	70.976425	-1386.771729	1267.366455	76.868034	-1551.922607	1015.940308	317.991852	-1477.362915	965.490051	-145.417694	-1508.439941	781.291687	355.078140	-1349.041687	771.253906	-115.131107	-1401.402100	884.348267	202.996445	-1400.914062	883.238403	-29.699570	-1619.512451	873.497620	98.850578	-1603.818726	1124.566528	85.556427	-1356.328369	1087.223145	94.514732	-1353.382690	485.897186	245.783188	-1321.614624	436.261047	199.709641	-1273.053223	233.429214	236.706589	-1215.102783	71.657349	166.149445	-1254.613770	35.072762	120.842972	-1094.750000	78.177467	137.081345	-1615.369873	528.557312	-99.742188	-1634.096680	454.391602	-26.305958	-1749.193604	271.236084	-51.834351	-1806.904785	111.237991	22.774069	-1844.813110	95.677971	81.080650	-1691.021240	40.815952	37.121983
92	0.91000000	-1441.357910	1322.587646	242.160797	-1443.209229	1282.943604	-106.234032	-1508.744751	1377.246826	72.545097	-1374.443726	1267.434448	78.067513	-1538.603027	1014.699524	319.041138	-1466.510742	965.179871	-144.312576	-1493.973206	780.081024	355.247696	-1338.858643	770.305664	-114.534149	-1387.801880	883.795166	203.832611	-1387.762207	882.193604	-28.661825	-1606.133301	873.164246	100.191383	-1591.180908	1123.761108	86.990089	-1343.532227	1087.119873	95.480881	-1337.950806	486.464630	245.863068	-1308.005859	435.793701	199.358124	-1264.923462	232.062775	234.844437	-1209.617676	70.002190	164.651169	-1250.418213	35.075283	119.167450	-1089.282349	72.611732	135.550369	-1604.035156	528.892456	-99.320656	-1622.414185	454.257111	-26.479389	-1741.883179	274.162506	-52.630585	-1803.438232	115.246330	21.199703	-1841.608765	100.861710	79.363983	-1689.818481	40.592823	36.492752
